<?xml version="1.0" encoding="utf-8"?>
<!-- Generator: Adobe Illustrator 23.0.6, SVG Export Plug-In . SVG Version: 6.00 Build 0)  -->
<svg version="1.1" id="Calque_1" xmlns="http://www.w3.org/2000/svg" xmlns:xlink="http://www.w3.org/1999/xlink" x="0px" y="0px"
	 viewBox="0 0 158.9 208.8" style="enable-background:new 0 0 158.9 208.8;" xml:space="preserve">
<style type="text/css">
	.st0{fill:#1C1D1E;}
	.st1{fill:#EA6F30;}
	.st2{fill:none;}
	.st3{enable-background:new    ;}
	.st4{fill:#FFFFFF;}
</style>
<title>Fichier 2</title>
<g>
	<g id="Calque_1-2">
		<g>
			<path class="st0" d="M158.9,185.7v23.1H0v-23.1H158.9z M51.1,200.3c0.7,4.6,4,5.1,7.5,5c2.4-0.1,5-0.7,5.6-3.2
				c1.7-6.9-5.7-5.1-8.4-7.8c2.8-4.3,5.6,2.4,8.3-0.4c0.1-2.2-1.3-3.2-3.1-3.9c-3.6-1.5-8.8,0-9.4,3c-1,4.4,2.2,5.6,5.7,6.3
				c0.9,0.2,2.4,0.1,2.7,1.7C56.8,204.4,54.5,198.1,51.1,200.3z M100.3,197.4c0.1-4.4-3.6-7.9-8.3-8s-8.5,3.1-8.6,7.6
				c-0.2,4.4,3.3,8.1,7.7,8.3c0.2,0,0.5,0,0.7,0C96.4,205.3,100.2,201.8,100.3,197.4z M114,200c2.8-2.2,3.9-5.4,1.9-7.9
				c-3.2-4-8-2.2-12.4-2.2v14.8c4.3,1.7,3.6-1.9,4.2-4c4-0.1,4.7,6.7,9.5,3.8L114,200z M41.7,204.4c-2.3-2.4-3.2-4.4-0.9-7.5
				c2-2.7-0.7-6.7-4.4-7.1c-2.7-0.3-5.5-0.1-8.5-0.1c0,4.6,0,8.8,0,12.9c0,1.2,0,2.4,1.7,2.5c0.6,0.1,1.1-0.1,1.5-0.4
				c0.4-0.5,0.7-1.1,0.7-1.7c0-0.5,0.1-1,0-1.5c0-0.5,0-0.9,0.1-1.2h2.9c2.1,0.9,2,3.9,3.9,4.6C39.7,205.2,40.8,205,41.7,204.4
				L41.7,204.4z M68.2,205.1c1.3-0.1,2.8-0.1,2.8-0.3c0.5-3.6,3.1-3.7,6-4.2c2.6-0.5,4.4-2.9,4.1-5.5c0-2.6-1.9-4.9-4.5-5.2
				c-2.8-0.2-5.6-0.3-8.4-0.1L68.2,205.1z M144.2,189.7c-1.9,9.9-0.9,14.9,2.8,15.1c0.8-1.4-0.3-3.3,1.1-5h4.2c1,0,2-0.1,2-1.5
				c0-1.3-0.6-1.5-1.7-1.8c-1.8-0.5-5.2,1.6-5-1.9c0.2-3.2,3.5-1,5.3-1.6c1-0.3,2.4,0.3,2.5-1.5s-1.1-1.8-2.3-1.8L144.2,189.7z
				 M13,193.5c1.2-1.7,4.4,1,4.3-2.2c-0.1-3-2.8-1.4-4.3-1.6c-2.5-0.2-5-0.2-7.4-0.1c-1.2,0-2.4-0.1-2.3,1.7c0,1.4,0.9,1.5,2,1.6
				c0.9,0,2-0.4,3.1,1V205c1.3,0,2.8,0.4,3.1-0.1C13.8,201.4,11.5,197.2,13,193.5z M119.6,189.6c-1.2,5.3,3.7,1.9,4.7,4.5
				c0,2,0,4.5,0,6.9c0,3.9,0.1,3.9,4.2,3.3v-11.2c0.8-0.2,1.3-0.3,1.8-0.4c1.3-0.2,3.3,0.7,3.1-1.9c-0.2-2.1-1.9-1.3-3.1-1.4
				C126.8,189.6,123.3,189.6,119.6,189.6L119.6,189.6z M135.8,204.7c4.5-0.1,4.9-1.7,3.7-14.7c-2.4-1-3.8-0.6-3.7,2.4
				C135.8,196.4,135.8,200.3,135.8,204.7L135.8,204.7z M20.5,189.9V205l1.6,0.3c3.9-3.3,1-8.2,1.8-12.3
				C24.3,190.7,23.6,188.9,20.5,189.9z"/>
		</g>
		<g>
			<path class="st0" d="M83.6,128.3v-12.8c25.7-2,46.1-22.4,48.2-48.1h12.9c-0.7,15.7-7.1,30.6-18,41.9
				C109.6,126.8,88.2,128.1,83.6,128.3z"/>
		</g>
		<g>
			<path class="st0" d="M83.7,0c33.9,1,61.1,30.8,61.1,60h-13c-4.7-27.2-20.7-42.7-48.1-47L83.7,0z"/>
		</g>
		<g>
			<path class="st0" d="M75,115.5v12.9c-31-0.2-60.7-28.3-61.1-60H27C31.5,95.4,47.5,110.9,75,115.5z"/>
		</g>
		<g>
			<path class="st0" d="M75.1,0C75,4.4,75,8.9,74.9,13.3c-25.3,1.9-45.5,21.8-47.9,47h-6.6h-6.5c1-15.6,7.6-30.3,18.6-41.4
				C43.9,7.6,59.1,0.8,75.1,0z"/>
		</g>
		<g>
			<path class="st1" d="M119.8,67.4c-0.3,8.5-3.5,16.7-9,23.3c-10.6,12.4-25.4,13.2-27.9,13.4V85.4c2.7-0.4,5.4-1.2,7.8-2.6
				c2.3-1.2,4.4-2.8,6.1-4.7c2.5-3.1,3.9-6.8,4.2-10.7H119.8z"/>
		</g>
		<g>
			<path class="st1" d="M56.8,67.4c0.3,2.7,1.2,5.3,2.7,7.6l0,0c0.3,0.5,0.6,1,1,1.5c2.8,3.5,6.5,6.2,10.6,8
				c1.2,0.4,2.4,0.7,3.7,0.9c0,6.3,0.1,12.5,0.1,18.8C55.2,102.5,39.6,86.9,38,67.2"/>
		</g>
		<g>
			<path class="st1" d="M82.9,23.4c10.1,1,19.5,5.6,26.4,12.9c5.9,6.4,9.6,14.5,10.6,23.2L101,59.3c-0.9-4.7-3.3-9-6.9-12.2
				c-3.2-2.7-7.1-4.5-11.2-5L82.9,23.4z"/>
		</g>
		<g>
			<path class="st1" d="M61.9,48.8c0,0.2-0.3,0.5-1.1,0.8"/>
		</g>
		<g>
			<path class="st1" d="M56.9,59.2h-19C40.8,40.5,56,26.1,74.8,24.1v18.1C74.8,42.2,57.9,46.6,56.9,59.2z"/>
		</g>
		<g>
			<path class="st0" d="M91.5,64.4c-0.3,6.4-5.4,11.5-11.8,11.8C73,76.4,67.5,71,67.3,64.3c0-0.1,0-0.2,0-0.3
				c0-6.6,5.3-11.7,12.3-11.7C86.2,52.5,91.5,57.8,91.5,64.4z"/>
		</g>
		<g>
			<path class="st2" d="M51.1,200.3c3.3-2.2,5.7,4.1,9,0.6c-0.3-1.6-1.8-1.5-2.7-1.7c-3.5-0.8-6.7-1.9-5.7-6.3c0.7-3,5.8-4.5,9.4-3
				c1.7,0.7,3.1,1.7,3.1,3.9c-2.7,2.9-5.5-3.9-8.3,0.4c2.7,2.7,10,1,8.4,7.8c-0.6,2.6-3.2,3.2-5.6,3.2
				C55.2,205.4,51.9,204.9,51.1,200.3z"/>
		</g>
		<g>
			<path class="st2" d="M100.3,197.4c-0.1,4.4-3.8,7.8-8.6,7.9c-4.4,0.2-8.2-3.2-8.4-7.6c0-0.2,0-0.5,0-0.7c0.1-4.5,3.8-7.7,8.6-7.6
				S100.4,193.1,100.3,197.4z M91.5,201.8c2.9-0.1,4.5-1.6,4.6-4.4s-1.5-4.4-4.2-4.5s-4.3,1.6-4.4,4.3S88.9,201.4,91.5,201.8z"/>
		</g>
		<g>
			<path class="st2" d="M114,200l3.2,4.5c-4.8,2.9-5.5-4-9.5-3.8c-0.6,2.1,0.1,5.7-4.2,4v-14.9c4.3,0,9.1-1.8,12.4,2.2
				C117.9,194.6,116.8,197.7,114,200z M113,194.7c-1-1.7-3.2-2.3-4.9-1.4c-1.2,0.6-1,2.2,0,3.7C109.7,196.4,112,197.8,113,194.7
				L113,194.7z"/>
		</g>
		<g>
			<path class="st2" d="M68.3,205.1v-15.3c2.8-0.2,5.6-0.1,8.4,0.1c2.6,0.3,4.6,2.5,4.5,5.2c0.3,2.6-1.5,5-4.1,5.5
				c-2.9,0.5-5.4,0.6-6,4.2C71.1,205,69.6,204.9,68.3,205.1z M72.1,197.5c2.4,0.4,4.7,0.6,4.9-2.2c0.2-1.8-1.6-2.6-3.2-2.4
				C71,193.2,72,195.4,72.1,197.5z"/>
		</g>
		<g>
			<path class="st2" d="M144.3,189.6h8.8c1.2,0,2.4,0,2.3,1.8s-1.5,1.2-2.5,1.5c-1.8,0.5-5.1-1.6-5.3,1.6c-0.2,3.6,3.2,1.5,5,1.9
				c1.1,0.3,1.8,0.6,1.7,1.8c0,1.4-0.9,1.5-2,1.5h-4.2c-1.4,1.7-0.3,3.6-1.1,5C143.4,204.5,142.4,199.5,144.3,189.6z"/>
		</g>
		<g>
			<path class="st2" d="M13,193.5c-1.5,3.8,0.8,7.9-1.5,11.4c-0.3,0.4-1.8,0.1-3.1,0.1v-11.1c-1.1-1.4-2.2-1-3.1-1
				c-1.1-0.1-1.9-0.2-2-1.6c-0.1-1.8,1.2-1.7,2.3-1.7c2.5-0.1,5-0.1,7.4,0.1c1.5,0.2,4.2-1.4,4.3,1.6
				C17.4,194.5,14.2,191.8,13,193.5z"/>
		</g>
		<g>
			<path class="st2" d="M119.6,189.6c3.8,0,7.2-0.1,10.7,0c1.1,0,2.9-0.8,3.1,1.4c0.2,2.6-1.8,1.6-3.1,1.9c-0.5,0.1-0.9,0.2-1.8,0.4
				v11.2c-4.1,0.6-4.1,0.6-4.2-3.3c0-2.5,0-4.9,0-6.9C123.3,191.6,118.3,194.9,119.6,189.6z"/>
		</g>
		<g>
			<path class="st2" d="M135.8,204.7c0-4.4,0.1-8.3,0-12.3c-0.1-3,1.3-3.4,3.7-2.4C140.6,203,140.3,204.7,135.8,204.7z"/>
		</g>
		<g>
			<path class="st2" d="M20.5,189.9c3.2-1,3.8,0.8,3.4,3.1c-0.8,4,2.1,9-1.8,12.3l-1.6-0.3L20.5,189.9z"/>
		</g>
		<g>
			<path class="st2" d="M8.2,171.4c0.5-2.9-1.2-5.1,1.7-6.4c2.6-1.2,10.6,0,11.8,1.7c1.5,2,0.2,3.4-1.9,4.8
				C19.9,171.4,12.1,171.4,8.2,171.4z"/>
		</g>
		<g>
			<path class="st2" d="M8.3,151.6c3.3,0,5.9,0.1,8.6,0c2.3-0.1,4.1,0.6,4.2,2.9c0.1,0.7-0.1,1.4-0.4,2c-0.5,0.8-1.2,1.4-2,1.8
				l-10.3-0.1c-0.1-0.9-0.1-1.9-0.2-2.9C8.2,154,8.2,152.8,8.3,151.6z"/>
		</g>
		<g>
			<path class="st2" d="M46.8,151.9c9.3-0.5,11.9,0.6,11.7,4.7s-4.1,5.6-12,4.7C46.1,158.2,45.7,155,46.8,151.9z"/>
		</g>
		<g>
			<path class="st0" d="M91.5,201.8c-2.6-0.3-4.2-1.8-4.1-4.5s1.6-4.4,4.4-4.3s4.3,1.8,4.2,4.5S94.4,201.6,91.5,201.8z"/>
		</g>
		<g>
			<path class="st0" d="M113,194.6c-1,3.2-3.3,1.8-5,2.2c-1-1.4-1.2-3.1,0-3.7C109.8,192.2,112,192.9,113,194.6z"/>
		</g>
		<g>
			<path class="st0" d="M72.1,197.5c-0.2-2.1-1.1-4.2,1.8-4.6c1.6-0.2,3.3,0.6,3.2,2.4C76.8,198,74.6,197.9,72.1,197.5z"/>
		</g>
		<g class="st3">
			<path class="st1" d="M32.5,168.7c0,5.6-4.9,9.4-13.1,9.4H0.2v-33.9h18.1c7.9,0,12.6,3.5,12.6,9c0,3.1-1.9,6.4-5.1,7.4
				C30.2,161.6,32.5,165.1,32.5,168.7z M9.3,158.1h7.6c3.4,0,5.3-1.4,5.3-3.6c0-2.1-1.8-3.3-5.3-3.3H9.3V158.1z M18.2,171.2
				c3.7,0,5.4-1.5,5.4-3.5c0-2.1-1.9-3.1-5.2-3.1h-9v6.7H18.2z"/>
		</g>
		<g class="st3">
			<path class="st1" d="M46.6,168.3v9.8h-9.1v-33.9h16c9,0,15.1,4.6,15.1,11.9c0,4.7-2.6,8.5-7,10.5l9.4,11.5h-11l-7.9-9.8H46.6z
				 M53.4,160.8c3.5,0,6.3-1.8,6.3-4.6c0-2.7-2.8-4.5-6.3-4.5h-6.7v9.1H53.4z"/>
		</g>
		<g class="st3">
			<path class="st1" d="M83.6,178.2h-9.1v-33.9h9.1V178.2z"/>
		</g>
		<g class="st3">
			<path class="st1" d="M99.1,157.8h16.2v7.2H99.1v5.9h18.6v7.3H90.1v-33.9h27.6v7.3H99.1V157.8z"/>
		</g>
		<g class="st3">
			<path class="st1" d="M142.9,167.9v10.2h-9.1v-10.2l-14.5-23.7h10.1l8.9,14.7l9-14.7h10.1L142.9,167.9z"/>
		</g>
		<g>
			<rect x="0.9" y="188.6" class="st0" width="156" height="17.5"/>
		</g>
		<g class="st3">
			<path class="st4" d="M12.8,193.1v11.6H8.6v-11.6H3.3v-3.3h14.8v3.3H12.8z"/>
		</g>
		<g class="st3">
			<path class="st4" d="M24.1,204.7h-4.2v-14.9h4.2V204.7z"/>
			<path class="st4" d="M31.2,200.3v4.3H27v-14.9h7.3c4.1,0,6.9,2,6.9,5.2c0,2.1-1.2,3.7-3.2,4.6l4.3,5h-5l-3.6-4.3H31.2z M34.3,197
				c1.6,0,2.9-0.8,2.9-2c0-1.2-1.3-2-2.9-2h-3.1v4H34.3z"/>
		</g>
		<g class="st3">
			<path class="st4" d="M64.5,194.4h-4.2c-0.2-1.1-1-1.9-2.7-1.9c-1.4,0-2.4,0.5-2.4,1.5c0,0.8,0.7,1.2,1.9,1.4l2.3,0.5
				c3,0.6,5,1.7,5,4.3c0,3-2.8,4.8-6.9,4.8c-3.8,0-7.1-1.6-7.5-5.3h4.2c0.3,1.3,1.5,2.1,3.5,2.1c1.5,0,2.4-0.5,2.4-1.3
				c0-0.5-0.3-1-1.8-1.3l-2.8-0.5c-3.3-0.6-4.8-2-4.8-4.4c0-3,2.7-4.9,6.6-4.9C60.1,189.4,64.1,190.4,64.5,194.4z"/>
		</g>
		<g class="st3">
			<path class="st4" d="M73.8,189.7c4.3,0,7.1,2.1,7.1,5.5c0,3.5-2.8,5.7-7.4,5.7h-2.2v3.8H67v-14.9H73.8z M73.7,197.6
				c1.8,0,3-0.9,3-2.4c0-1.3-1.2-2.2-3-2.2h-2.5v4.6H73.7z"/>
			<path class="st4" d="M100.1,197.2c0,4.3-3.8,7.8-8.9,7.8c-5,0-8.8-3.4-8.8-7.8c0-4.3,3.8-7.8,8.8-7.8
				C96.3,189.4,100.1,192.9,100.1,197.2z M95.9,197.2c0-2.3-1.9-4.3-4.6-4.3c-2.7,0-4.6,2-4.6,4.3c0,2.3,1.9,4.3,4.6,4.3
				C93.9,201.5,95.9,199.5,95.9,197.2z"/>
		</g>
		<g class="st3">
			<path class="st4" d="M106.8,200.3v4.3h-4.2v-14.9h7.3c4.1,0,6.9,2,6.9,5.2c0,2.1-1.2,3.7-3.2,4.6l4.3,5h-5l-3.6-4.3H106.8z
				 M109.9,197c1.6,0,2.9-0.8,2.9-2c0-1.2-1.3-2-2.9-2h-3.1v4H109.9z"/>
		</g>
		<g class="st3">
			<path class="st4" d="M127.4,193.1v11.6h-4.2v-11.6H118v-3.3h14.8v3.3H127.4z"/>
		</g>
		<g class="st3">
			<path class="st4" d="M138.8,204.7h-4.2v-14.9h4.2V204.7z"/>
			<path class="st4" d="M145.9,196.2h7.2v3.2h-7.2v5.3h-4.2v-14.9h12.5v3.3h-8.3V196.2z"/>
		</g>
	</g>
</g>
</svg>
