<svg xmlns="http://www.w3.org/2000/svg" width="109.73" height="44.61" viewBox="0 0 109.73 44.61"><defs><style>.a{fill:#1c1d1e;}.b{fill:none;}.c{fill:#ea6f30;}.d{fill:#fff;}</style></defs><g transform="translate(0 0)"><g transform="translate(0 28.658)"><path class="a" d="M109.73,185.7v15.952H0V185.7ZM35.288,195.782c.483,3.177,2.762,3.522,5.179,3.453,1.657-.069,3.453-.483,3.867-2.21,1.174-4.765-3.936-3.522-5.8-5.386,1.934-2.969,3.867,1.657,5.732-.276.069-1.519-.9-2.21-2.141-2.693-2.486-1.036-6.077,0-6.491,2.072-.691,3.038,1.519,3.867,3.936,4.351.622.138,1.657.069,1.865,1.174C39.224,198.613,37.636,194.263,35.288,195.782Zm33.976-2a5.589,5.589,0,0,0-5.732-5.525,5.5,5.5,0,1,0-.622,10.98h.483A5.743,5.743,0,0,0,69.263,193.78Zm9.461,1.8c1.934-1.519,2.693-3.729,1.312-5.455-2.21-2.762-5.524-1.519-8.563-1.519v10.22c2.969,1.174,2.486-1.312,2.9-2.762,2.762-.069,3.246,4.627,6.56,2.624ZM28.8,198.613c-1.588-1.657-2.21-3.038-.622-5.179,1.381-1.865-.483-4.627-3.038-4.9a54.806,54.806,0,0,0-5.87-.069v8.908c0,.829,0,1.657,1.174,1.726a1.321,1.321,0,0,0,1.036-.276,1.959,1.959,0,0,0,.483-1.174,5.192,5.192,0,0,0,0-1.036,2.846,2.846,0,0,1,.069-.829h2c1.45.622,1.381,2.693,2.693,3.177a2.471,2.471,0,0,0,2.072-.345Zm18.3.483a6.816,6.816,0,0,0,1.934-.207c.345-2.486,2.141-2.555,4.143-2.9a3.489,3.489,0,0,0,2.831-3.8A3.585,3.585,0,0,0,52.9,188.6a40.665,40.665,0,0,0-5.8-.069Zm52.483-10.635c-1.312,6.837-.622,10.289,1.934,10.428.552-.967-.207-2.279.76-3.453h2.9c.691,0,1.381-.069,1.381-1.036,0-.9-.414-1.036-1.174-1.243-1.243-.345-3.591,1.1-3.453-1.312.138-2.21,2.417-.691,3.66-1.1.691-.207,1.657.207,1.726-1.036s-.76-1.243-1.588-1.243Zm-90.6,2.624c.829-1.174,3.038.691,2.969-1.519-.069-2.072-1.934-.967-2.969-1.1a42.246,42.246,0,0,0-5.11-.069c-.829,0-1.657-.069-1.588,1.174,0,.967.622,1.036,1.381,1.1.622,0,1.381-.276,2.141.691v7.665c.9,0,1.934.276,2.141-.069C9.53,196.542,7.941,193.641,8.977,191.086Zm73.614-2.693c-.829,3.66,2.555,1.312,3.246,3.108v4.765c0,2.693.069,2.693,2.9,2.279V190.81c.552-.138.9-.207,1.243-.276.9-.138,2.279.483,2.141-1.312-.138-1.45-1.312-.9-2.141-.967-2.417.138-4.834.138-7.389.138Zm11.187,10.427c3.108-.069,3.384-1.174,2.555-10.151-1.657-.691-2.624-.414-2.555,1.657v8.494ZM14.157,188.6v10.428l1.1.207c2.693-2.279.691-5.663,1.243-8.494C16.781,189.153,16.3,187.91,14.157,188.6Z" transform="translate(0 -185.7)"/></g><g transform="translate(35.288 31.152)"><path class="b" d="M51.1,196.9c2.279-1.519,3.936,2.831,6.215.414-.207-1.1-1.243-1.036-1.865-1.174-2.417-.552-4.627-1.312-3.936-4.351.483-2.072,4.005-3.108,6.491-2.072,1.174.483,2.141,1.174,2.141,2.693-1.865,2-3.8-2.693-5.732.276,1.865,1.864,6.906.691,5.8,5.386-.414,1.8-2.21,2.21-3.867,2.21C53.931,200.422,51.652,200.076,51.1,196.9Z" transform="translate(-51.1 -189.312)"/></g><g transform="translate(57.524 31.212)"><path class="b" d="M95.04,194.924a5.764,5.764,0,0,1-5.939,5.455,5.548,5.548,0,0,1-5.8-5.248v-.483c.069-3.108,2.624-5.317,5.939-5.248A5.649,5.649,0,0,1,95.04,194.924Zm-6.077,3.038c2-.069,3.108-1.1,3.177-3.038a2.746,2.746,0,0,0-2.9-3.108,2.775,2.775,0,0,0-3.038,2.969A2.871,2.871,0,0,0,88.963,197.962Z" transform="translate(-83.3 -189.398)"/></g><g transform="translate(71.473 31.211)"><path class="b" d="M110.751,196.719l2.21,3.108c-3.315,2-3.8-2.762-6.56-2.624-.414,1.45.069,3.936-2.9,2.762V189.675c2.969,0,6.284-1.243,8.563,1.519C113.444,192.99,112.684,195.13,110.751,196.719Zm-.691-3.66a2.569,2.569,0,0,0-3.384-.967c-.829.414-.691,1.519,0,2.555,1.1-.414,2.693.552,3.384-1.588Z" transform="translate(-103.5 -189.396)"/></g><g transform="translate(47.165 31.414)"><path class="b" d="M68.3,200.332V189.766a40.66,40.66,0,0,1,5.8.069,3.786,3.786,0,0,1,.276,7.389c-2,.345-3.729.414-4.143,2.9C70.234,200.263,69.2,200.194,68.3,200.332Zm2.624-5.248c1.657.276,3.246.414,3.384-1.519.138-1.243-1.1-1.8-2.21-1.657C70.165,192.114,70.855,193.633,70.924,195.084Z" transform="translate(-68.3 -189.691)"/></g><g transform="translate(98.996 31.352)"><path class="b" d="M144.008,189.6h6.077c.829,0,1.657,0,1.588,1.243s-1.036.829-1.726,1.036c-1.243.345-3.522-1.1-3.66,1.1-.138,2.486,2.21,1.036,3.453,1.312.76.207,1.243.414,1.174,1.243,0,.967-.621,1.036-1.381,1.036h-2.9c-.967,1.174-.207,2.486-.76,3.453C143.386,199.889,142.7,196.437,144.008,189.6Z" transform="translate(-143.356 -189.6)"/></g><g transform="translate(2.275 31.248)"><path class="b" d="M10,192.247c-1.036,2.624.552,5.455-1.036,7.872-.207.276-1.243.069-2.141.069v-7.665c-.76-.967-1.519-.691-2.141-.691-.76-.069-1.312-.138-1.381-1.1-.069-1.243.829-1.174,1.588-1.174a41.863,41.863,0,0,1,5.11.069c1.036.138,2.9-.967,2.969,1.1C13.035,192.937,10.825,191.073,10,192.247Z" transform="translate(-3.295 -189.45)"/></g><g transform="translate(82.443 31.254)"><path class="b" d="M119.534,189.556c2.624,0,4.972-.069,7.389,0,.76,0,2-.552,2.141.967.138,1.8-1.243,1.1-2.141,1.312-.345.069-.621.138-1.243.276v7.734c-2.831.414-2.831.414-2.9-2.279V192.8C122.089,190.937,118.636,193.216,119.534,189.556Z" transform="translate(-119.386 -189.458)"/></g><g transform="translate(93.775 31.289)"><path class="b" d="M135.8,200c0-3.038.069-5.732,0-8.494-.069-2.072.9-2.348,2.555-1.657C139.113,198.825,138.906,200,135.8,200Z" transform="translate(-135.795 -189.509)"/></g><g transform="translate(14.157 31.364)"><path class="b" d="M20.5,189.813c2.21-.691,2.624.552,2.348,2.141-.552,2.762,1.45,6.215-1.243,8.494l-1.1-.207Z" transform="translate(-20.5 -189.617)"/></g><g transform="translate(5.628 14.029)"><path class="b" d="M8.185,169.269c.345-2-.829-3.522,1.174-4.42,1.8-.829,7.32,0,8.149,1.174,1.036,1.381.138,2.348-1.312,3.315C16.264,169.269,10.878,169.269,8.185,169.269Z" transform="translate(-8.15 -164.515)"/></g><g transform="translate(5.663 5.104)"><path class="b" d="M8.269,151.6c2.279,0,4.074.069,5.939,0,1.588-.069,2.831.414,2.9,2a2.378,2.378,0,0,1-.276,1.381,3.41,3.41,0,0,1-1.381,1.243l-7.113-.069c-.069-.622-.069-1.312-.138-2C8.2,153.254,8.2,152.426,8.269,151.6Z" transform="translate(-8.2 -151.591)"/></g><g transform="translate(31.826 5.24)"><path class="b" d="M46.579,151.865c6.422-.345,8.218.414,8.08,3.246s-2.831,3.867-8.287,3.246A13.774,13.774,0,0,1,46.579,151.865Z" transform="translate(-46.087 -151.788)"/></g><g transform="translate(60.352 33.697)"><path class="a" d="M90.23,199.076a2.829,2.829,0,0,1-2.831-3.108,2.971,2.971,0,1,1,5.939.138C93.268,197.971,92.233,198.938,90.23,199.076Z" transform="translate(-87.396 -192.996)"/></g><g transform="translate(74.01 33.496)"><path class="a" d="M111.2,194.014c-.691,2.21-2.279,1.243-3.453,1.519-.691-.967-.829-2.141,0-2.555A2.658,2.658,0,0,1,111.2,194.014Z" transform="translate(-107.173 -192.706)"/></g><g transform="translate(49.59 33.61)"><path class="a" d="M72.011,196.067c-.138-1.45-.76-2.9,1.243-3.177,1.1-.138,2.279.414,2.21,1.657C75.256,196.413,73.737,196.343,72.011,196.067Z" transform="translate(-71.811 -192.87)"/></g><g transform="translate(0.138)"><path class="c" d="M22.505,161.119c0,3.867-3.384,6.491-9.046,6.491H.2V144.2H12.7c5.455,0,8.7,2.417,8.7,6.215a5.354,5.354,0,0,1-3.522,5.11A5.68,5.68,0,0,1,22.505,161.119ZM6.484,153.8h5.248c2.348,0,3.66-.967,3.66-2.486,0-1.45-1.243-2.279-3.66-2.279H6.484Zm6.146,9.046c2.555,0,3.729-1.036,3.729-2.417,0-1.45-1.312-2.141-3.591-2.141H6.553v4.627H12.63Z" transform="translate(-0.2 -144.2)"/></g><g transform="translate(25.896 0)"><path class="c" d="M43.784,160.843v6.768H37.5V144.2H48.549c6.215,0,10.427,3.177,10.427,8.218a7.773,7.773,0,0,1-4.834,7.251l6.491,7.941h-7.6l-5.455-6.768Zm4.7-5.179c2.417,0,4.351-1.243,4.351-3.177,0-1.865-1.934-3.108-4.351-3.108H43.853v6.284Z" transform="translate(-37.5 -144.2)"/></g><g transform="translate(51.447 0.069)"><path class="c" d="M80.784,167.71H74.5V144.3h6.284Z" transform="translate(-74.5 -144.3)"/></g><g transform="translate(62.22 0.069)"><path class="c" d="M96.315,153.623H107.5v4.972H96.315v4.074H109.16v5.041H90.1V144.3h19.06v5.041H96.315Z" transform="translate(-90.1 -144.3)"/></g><g transform="translate(82.384 0)"><path class="c" d="M135.6,160.566v7.044h-6.284v-7.044L119.3,144.2h6.975l6.146,10.151,6.215-10.151h6.975Z" transform="translate(-119.3 -144.2)"/></g><g transform="translate(0.622 30.661)"><rect class="a" width="107.728" height="12.085"/></g><g transform="translate(2.279 31.49)"><path class="d" d="M9.86,192.079v8.011H6.96v-8.011H3.3V189.8H13.52v2.279Z" transform="translate(-3.3 -189.8)"/></g><g transform="translate(13.742 31.421)"><path class="d" d="M22.8,200.089H19.9V189.8h2.9Z" transform="translate(-19.9 -189.731)"/><path class="d" d="M29.9,197.02v2.969H27V189.7h5.041c2.831,0,4.765,1.381,4.765,3.591a3.406,3.406,0,0,1-2.21,3.177l2.969,3.453H34.113l-2.486-2.969H29.9Zm2.141-2.279c1.1,0,2-.552,2-1.381s-.9-1.381-2-1.381H29.9v2.762Z" transform="translate(-22.097 -189.7)"/></g><g transform="translate(34.528 31.213)"><path class="d" d="M60.013,192.853h-2.9c-.138-.76-.691-1.312-1.865-1.312-.967,0-1.657.345-1.657,1.036,0,.552.483.829,1.312.967l1.588.345c2.072.414,3.453,1.174,3.453,2.969,0,2.072-1.934,3.315-4.765,3.315-2.624,0-4.9-1.1-5.179-3.66h2.9c.207.9,1.036,1.45,2.417,1.45,1.036,0,1.657-.345,1.657-.9,0-.345-.207-.691-1.243-.9l-1.934-.345c-2.279-.414-3.315-1.381-3.315-3.038,0-2.072,1.865-3.384,4.558-3.384C56.975,189.4,59.737,190.091,60.013,192.853Z" transform="translate(-50 -189.4)"/></g><g transform="translate(46.268 31.213)"><path class="d" d="M71.7,189.7c2.969,0,4.9,1.45,4.9,3.8,0,2.417-1.934,3.936-5.11,3.936H69.969v2.624H67V189.769h4.7Zm-.069,5.455c1.243,0,2.072-.622,2.072-1.657,0-.9-.829-1.519-2.072-1.519H69.9v3.177Z" transform="translate(-67 -189.493)"/><path class="d" d="M94.623,194.786c0,2.969-2.624,5.386-6.146,5.386-3.453,0-6.077-2.348-6.077-5.386,0-2.969,2.624-5.386,6.077-5.386C92,189.4,94.623,191.817,94.623,194.786Zm-2.9,0a3.184,3.184,0,1,0-3.177,2.969A3.086,3.086,0,0,0,91.723,194.786Z" transform="translate(-71.765 -189.4)"/></g><g transform="translate(70.852 31.421)"><path class="d" d="M105.5,197.02v2.969h-2.9V189.7h5.041c2.831,0,4.765,1.381,4.765,3.591a3.406,3.406,0,0,1-2.21,3.177l2.969,3.453h-3.453l-2.486-2.969H105.5Zm2.141-2.279c1.1,0,2-.552,2-1.381s-.9-1.381-2-1.381H105.5v2.762Z" transform="translate(-102.6 -189.7)"/></g><g transform="translate(81.486 31.49)"><path class="d" d="M124.491,192.079v8.011h-2.9v-8.011H118V189.8h10.22v2.279Z" transform="translate(-118 -189.8)"/></g><g transform="translate(92.95 31.49)"><path class="d" d="M137.5,200.089h-2.9V189.8h2.9Z" transform="translate(-134.6 -189.8)"/><path class="d" d="M144.6,194.22h4.972v2.21H144.6v3.66h-2.9V189.8h8.632v2.279H144.6Z" transform="translate(-136.797 -189.8)"/></g></g></svg>