<svg xmlns="http://www.w3.org/2000/svg" width="45.479" height="44.61" viewBox="0 0 45.479 44.61"><defs><style>.a{fill:#1c1d1e;}.b{fill:#ea6f30;}</style></defs><g transform="translate(24.216 23.417)"><path class="a" d="M83.6,88.559V84.111A18.234,18.234,0,0,0,100.346,67.4h4.482A21.989,21.989,0,0,1,83.6,88.559Z" transform="translate(-83.6 -67.4)"/></g><g transform="translate(24.251)"><path class="a" d="M83.7,0c11.778.347,21.228,10.7,21.228,20.846h-4.517C98.779,11.4,93.22,6.011,83.7,4.517Z" transform="translate(-83.7)"/></g><g transform="translate(0 23.764)"><path class="a" d="M35.128,84.764v4.482C24.358,89.176,14.039,79.414,13.9,68.4h4.551C20.015,77.781,25.574,83.166,35.128,84.764Z" transform="translate(-13.9 -68.4)"/></g><path class="a" d="M35.163,0c-.035,1.529-.035,3.092-.069,4.621A18.092,18.092,0,0,0,18.451,20.95H13.9A22.469,22.469,0,0,1,20.362,6.566,22.69,22.69,0,0,1,35.163,0Z" transform="translate(-13.9)"/><g transform="translate(23.973 23.417)"><path class="b" d="M95.72,67.4a13.413,13.413,0,0,1-3.127,8.1A14.018,14.018,0,0,1,82.9,80.151v-6.5a8.3,8.3,0,0,0,4.829-2.536A6.691,6.691,0,0,0,89.189,67.4Z" transform="translate(-82.9 -67.4)"/></g><g transform="translate(8.373 23.347)"><path class="b" d="M44.532,67.269a6.039,6.039,0,0,0,.938,2.64h0a4.522,4.522,0,0,0,.347.521A9.683,9.683,0,0,0,49.5,73.211a7.717,7.717,0,0,0,1.286.313c0,2.189.035,4.343.035,6.532A14.051,14.051,0,0,1,38,67.2" transform="translate(-38 -67.2)"/></g><g transform="translate(23.973 8.13)"><path class="b" d="M82.9,23.4a14.612,14.612,0,0,1,9.172,4.482,14.273,14.273,0,0,1,3.683,8.06l-6.566-.069a7.567,7.567,0,0,0-2.4-4.239A7.488,7.488,0,0,0,82.9,29.9Z" transform="translate(-82.9 -23.4)"/></g><g transform="translate(16.295 16.955)"><path class="b" d="M61.182,48.8c0,.069-.1.174-.382.278" transform="translate(-60.8 -48.8)"/></g><g transform="translate(8.338 8.373)"><path class="b" d="M44.5,36.295H37.9A14.528,14.528,0,0,1,50.72,24.1v6.289S44.849,31.917,44.5,36.295Z" transform="translate(-37.9 -24.1)"/></g><g transform="translate(18.553 18.171)"><path class="a" d="M75.708,56.5a4.3,4.3,0,0,1-4.1,4.1A4.226,4.226,0,0,1,67.3,56.469v-.1A4.1,4.1,0,0,1,71.573,52.3,4.227,4.227,0,0,1,75.708,56.5Z" transform="translate(-67.3 -52.3)"/></g></svg>